<svg xmlns="http://www.w3.org/2000/svg" viewBox="0 0 800 800">
<defs>
<linearGradient id="silver" x1="0" y1="0" x2="1" y2="1">
  <stop offset="0" stop-color="#f4f4f6"/><stop offset="0.45" stop-color="#9a9aa4"/>
  <stop offset="0.6" stop-color="#e8e8ec"/><stop offset="1" stop-color="#4a4a52"/>
</linearGradient>
<filter id="grain"><feTurbulence type="fractalNoise" baseFrequency="0.8" numOctaves="2" stitchTiles="stitch"/>
<feColorMatrix type="saturate" values="0"/><feComponentTransfer><feFuncA type="linear" slope="0.14"/></feComponentTransfer>
<feComposite operator="over" in2="SourceGraphic"/></filter>
<radialGradient id="vig" cx="0.5" cy="0.42" r="0.75">
  <stop offset="0.55" stop-color="#000" stop-opacity="0"/><stop offset="1" stop-color="#000" stop-opacity="0.7"/>
</radialGradient>
</defs>
<rect width="800" height="800" fill="#0a0b0b"/>
<g transform="translate(400 360) rotate(-5) scale(4.8) translate(-50 -50)"><path d="M50 0 C54 33 67 46 100 50 C67 54 54 67 50 100 C46 67 33 54 0 50 C33 46 46 33 50 0 Z" fill="url(#silver)"/></g>
<g transform="translate(640 140) rotate(0) scale(1.1) translate(-50 -50)"><path d="M50 0 C54 33 67 46 100 50 C67 54 54 67 50 100 C46 67 33 54 0 50 C33 46 46 33 50 0 Z" fill="none" stroke="#55555c" stroke-width="3"/></g>
<text x="48" y="690" font-family="Arial Black, Arial, sans-serif" font-weight="900" font-size="150" fill="#f0efec">AB</text>
<text x="48" y="748" font-family="Courier New, monospace" font-size="22" letter-spacing="6" fill="#8a8a90" text-anchor="start">WIATRA — 2026</text>
<text x="752" y="88" font-family="Courier New, monospace" font-size="22" letter-spacing="6" fill="#8a8a90" text-anchor="end">RAVEX ✦</text>
<rect width="800" height="800" fill="url(#vig)"/>
<rect width="800" height="800" filter="url(#grain)" opacity="0.5"/>
</svg>